<svg width="40" height="40" viewBox="0 0 40 40" fill="none" xmlns="http://www.w3.org/2000/svg">
<path fill-rule="evenodd" clip-rule="evenodd" d="M33.8951 1.23376C34.8897 1.23376 35.8435 1.62885 36.5468 2.33211C37.25 3.03538 37.6451 3.9892 37.6451 4.98376V9.98376C37.6451 10.9783 37.25 11.9322 36.5468 12.6354C35.8435 13.3387 34.8897 13.7338 33.8951 13.7338H32.0626L29.9326 16.925C29.819 17.097 29.6646 17.2382 29.4831 17.3358C29.3016 17.4335 29.0987 17.4846 28.8926 17.4846C28.6865 17.4846 28.4836 17.4335 28.3021 17.3358C28.1206 17.2382 27.9662 17.097 27.8526 16.925L25.7226 13.7325H23.8914C22.8968 13.7325 21.943 13.3374 21.2397 12.6342C20.5364 11.9309 20.1414 10.9771 20.1414 9.98251V4.98251C20.1417 3.98817 20.5369 3.03466 21.2401 2.33167C21.9434 1.62868 22.897 1.23376 23.8914 1.23376H33.8951Z" fill="#FFB423"/>
<path fill-rule="evenodd" clip-rule="evenodd" d="M33.86 20C34.3526 19.9997 34.8405 20.0964 35.2958 20.2847C35.7511 20.473 36.1648 20.7492 36.5132 21.0975C36.8617 21.4457 37.1382 21.8592 37.3268 22.3144C37.5154 22.7695 37.6125 23.2573 37.6125 23.75V28.75C37.6125 29.2427 37.5154 29.7305 37.3268 30.1856C37.1382 30.6408 36.8617 31.0543 36.5132 31.4025C36.1648 31.7508 35.7511 32.027 35.2958 32.2153C34.8405 32.4036 34.3526 32.5003 33.86 32.5H31.3587C31.0272 32.5 30.7093 32.3683 30.4748 32.1339C30.2404 31.8995 30.1087 31.5815 30.1087 31.25V21.25C30.1087 20.9185 30.2404 20.6005 30.4748 20.3661C30.7093 20.1317 31.0272 20 31.3587 20H33.86ZM10.0975 21.25V31.25C10.0975 31.5815 9.96578 31.8995 9.73136 32.1339C9.49693 32.3683 9.17899 32.5 8.84747 32.5H6.34622C5.85366 32.5002 5.36589 32.4033 4.91077 32.2149C4.45566 32.0265 4.04211 31.7503 3.69376 31.4021C3.34541 31.0539 3.06908 30.6404 2.88054 30.1854C2.69201 29.7303 2.59497 29.2426 2.59497 28.75V23.75C2.59497 23.2574 2.69201 22.7697 2.88054 22.3146C3.06908 21.8596 3.34541 21.4461 3.69376 21.0979C4.04211 20.7497 4.45566 20.4735 4.91077 20.2851C5.36589 20.0967 5.85366 19.9998 6.34622 20H8.84747C9.17899 20 9.49693 20.1317 9.73136 20.3661C9.96578 20.6005 10.0975 20.9185 10.0975 21.25Z" fill="#FF2328"/>
<path fill-rule="evenodd" clip-rule="evenodd" d="M11.2513 11.0913C10.0728 10.7873 9.04558 10.064 8.3623 9.05678C7.67903 8.04959 7.38658 6.82777 7.53978 5.62037C7.69298 4.41298 8.28132 3.30291 9.19448 2.4983C10.1076 1.69368 11.2829 1.24976 12.5 1.24976C13.7171 1.24976 14.8924 1.69368 15.8055 2.4983C16.7187 3.30291 17.307 4.41298 17.4602 5.62037C17.6134 6.82777 17.321 8.04959 16.6377 9.05678C15.9544 10.064 14.9273 10.7873 13.7488 11.0913V17.5001C13.7488 17.8312 13.6172 18.1489 13.383 18.3831C13.1488 18.6172 12.8312 18.7488 12.5 18.7488C12.1688 18.7488 11.8512 18.6172 11.617 18.3831C11.3828 18.1489 11.2513 17.8312 11.2513 17.5001V11.0913Z" fill="#4B5B60"/>
<path fill-rule="evenodd" clip-rule="evenodd" d="M28.75 16.25C29.745 16.25 30.6987 16.645 31.4013 17.3487C32.105 18.0512 32.5 19.005 32.5 20V32.5C32.5 33.495 32.105 34.4487 31.4013 35.1513C31.0533 35.4997 30.64 35.7761 30.1851 35.9647C29.7301 36.1532 29.2425 36.2502 28.75 36.25H11.25C10.7575 36.2502 10.2699 36.1532 9.81495 35.9647C9.36001 35.7761 8.94673 35.4997 8.59875 35.1513C8.25028 34.8033 7.97387 34.39 7.78533 33.9351C7.59679 33.4801 7.49983 32.9925 7.5 32.5V20C7.5 19.005 7.895 18.0512 8.59875 17.3487C8.94673 17.0003 9.36001 16.7239 9.81495 16.5353C10.2699 16.3468 10.7575 16.2498 11.25 16.25H28.75Z" fill="#CFD6D9"/>
<path fill-rule="evenodd" clip-rule="evenodd" d="M13.75 25C13.75 24.6685 13.8817 24.3505 14.1161 24.1161C14.3505 23.8817 14.6685 23.75 15 23.75C15.3315 23.75 15.6495 23.8817 15.8839 24.1161C16.1183 24.3505 16.25 24.6685 16.25 25V27.5C16.25 27.8315 16.1183 28.1495 15.8839 28.3839C15.6495 28.6183 15.3315 28.75 15 28.75C14.6685 28.75 14.3505 28.6183 14.1161 28.3839C13.8817 28.1495 13.75 27.8315 13.75 27.5V25ZM23.75 25C23.75 24.6685 23.8817 24.3505 24.1161 24.1161C24.3505 23.8817 24.6685 23.75 25 23.75C25.3315 23.75 25.6495 23.8817 25.8839 24.1161C26.1183 24.3505 26.25 24.6685 26.25 25V27.5C26.25 27.8315 26.1183 28.1495 25.8839 28.3839C25.6495 28.6183 25.3315 28.75 25 28.75C24.6685 28.75 24.3505 28.6183 24.1161 28.3839C23.8817 28.1495 23.75 27.8315 23.75 27.5V25Z" fill="#4B5B60"/>
</svg>
